<svg xmlns="http://www.w3.org/2000/svg" class="preprod" fill="currentColor" viewBox="0 0 190 190">
  <path d="M10 2a2 2 0 0 1-1.5 1.937v5.087c.863.083 1.5.377 1.5.726 0 .414-.895.75-2 .75s-2-.336-2-.75c0-.35.637-.643 1.5-.726V3.937A2 2 0 1 1 10 2"/>
<path
   d="m 116.34615,31.631819 a 21.058756,21.058756 0 0 1 -15.79407,20.395405 v 53.562946 c 9.08686,0.87394 15.79407,3.96957 15.79407,7.64433 0,4.35916 -9.42378,7.89703 -21.05875,7.89703 -11.63496,0 -21.058757,-3.53787 -21.058757,-7.89703 0,-3.68528 6.707214,-6.77039 15.794067,-7.64433 V 52.027224 a 21.058756,21.058756 0 1 1 26.32344,-20.395405"
   id="path2"
   style="stroke-width:10.5294" /><path
   d="m 11.052376,112.3395 v 18.07894 a 10.529378,10.529378 0 0 0 5.822746,9.41327 l 68.999018,34.50477 a 21.058756,21.058756 0 0 0 18.82652,0 l 68.99902,-34.50477 a 10.529378,10.529378 0 0 0 5.82274,-9.41327 V 112.3395 c 0,-1.05293 -0.63176,-2.00058 -1.60046,-2.42176 L 111.08147,81.277836 v 10.455677 l 55.03706,22.932977 a 1.3161722,1.3161722 0 0 1 0.0106,2.42176 l -62.5445,26.8078 a 21.058756,21.058756 0 0 1 -16.5943,0 l -62.544585,-26.8078 a 1.3161722,1.3161722 0 0 1 0.01049,-2.42176 L 79.493332,91.733513 79.35645,81.330482 12.652841,109.91774 a 2.6323444,2.6323444 0 0 0 -1.600465,2.42176"
   id="path4"
   style="stroke-width:10.5294" />
</svg>
